<?xml version="1.0" encoding="UTF-8" standalone="no"?>
<!DOCTYPE svg PUBLIC "-//W3C//DTD SVG 1.1//EN" "http://www.w3.org/Graphics/SVG/1.1/DTD/svg11.dtd">
<svg width="100%" height="100%" viewBox="0 0 1461 557" version="1.1" xmlns="http://www.w3.org/2000/svg" xmlns:xlink="http://www.w3.org/1999/xlink" xml:space="preserve" xmlns:serif="http://www.serif.com/" style="fill-rule:evenodd;clip-rule:evenodd;stroke-linejoin:round;stroke-miterlimit:1.41421;">
    <g id="Layer_3_copy">
        <g transform="matrix(1,0,0,1,-187.73,-246.35)">
            <path d="M314.59,342.6C303.267,342.6 293.95,351.917 293.95,363.24L293.95,462.31C293.95,473.633 303.267,482.95 314.59,482.95C325.913,482.95 335.23,473.633 335.23,462.31L335.23,363.24C335.23,351.917 325.913,342.6 314.59,342.6Z" style="fill:white;fill-rule:nonzero;"/>
        </g>
        <g id="Layer_15" transform="matrix(1,0,0,1,-187.73,-246.35)">
            <path d="M596.66,677.19C588.853,673.573 581.378,669.28 574.32,664.36C544.652,700.684 507.962,730.655 466.45,752.48C460.596,755.547 453.594,755.547 447.74,752.48C295.06,672.33 249.62,505.74 236.21,407.06C235.619,402.709 238.516,398.587 242.81,397.67C293.1,386.9 373.42,361.47 450.91,302.12C454.552,299.335 459.648,299.335 463.29,302.12C540.77,361.48 621.09,386.91 671.39,397.67C675.684,398.587 678.581,402.709 677.99,407.06C676.66,416.82 674.99,427.26 672.99,438.2C680.903,440.384 688.537,443.474 695.74,447.41C702.146,451.059 708.213,455.273 713.87,460C719.981,430.637 724.173,400.908 726.42,371C726.843,365.631 722.856,360.835 717.5,360.27C684.69,356.65 573.11,338.35 471.59,251.63C463.268,244.546 450.912,244.546 442.59,251.63C341.07,338.36 229.49,356.63 196.68,360.27C191.324,360.835 187.337,365.631 187.76,371C194.46,462 232.23,700.54 442.76,799.58C451.811,803.859 462.319,803.859 471.37,799.58C532.99,770.58 579.79,729.66 615.37,683.98C608.981,682.16 602.729,679.891 596.66,677.19ZM471.45,285.49L471.4,285.49L471.45,285.49Z" style="fill:white;fill-rule:nonzero;"/>
        </g>
    </g>
    <g id="Layer_5_copy_2">
        <g transform="matrix(1,0,0,1,-187.73,-246.35)">
            <path d="M457.9,389C480.98,389 499.943,395.19 514.79,407.57C524.263,415.417 529,423.447 529,431.66C529,437.907 525.827,443.057 519.48,447.11C515.156,449.965 510.081,451.475 504.9,451.45C496.527,451.45 490.453,448.557 486.68,442.77C479.913,432.257 470.187,427 457.5,427C443.867,427 434.823,432.553 430.37,443.66C428.205,449.128 427.105,454.959 427.13,460.84C427.005,467.799 429.625,474.535 434.42,479.58C441.307,487.213 453.657,495.43 471.47,504.23C492.803,514.757 508.393,524.477 518.24,533.39C534.573,548.55 542.74,566.833 542.74,588.24C542.74,609.647 534.71,627.003 518.65,640.31C502.723,653.643 482.207,660.31 457.1,660.31C425.513,660.31 401.283,651.69 384.41,634.45C375.743,625.543 371.41,617.327 371.41,609.8C371.41,604.713 373.57,600.2 377.89,596.26C382.21,592.213 387.877,590.19 394.89,590.19C403.123,590.19 410.073,594.067 415.74,601.82C425.073,614.547 438.3,620.91 455.42,620.91C465.813,620.91 474.183,618.597 480.53,613.97C488.49,608.183 492.473,599.39 492.48,587.59C492.48,574.977 486.677,563.927 475.07,554.44C466.697,547.613 454.413,540.38 438.22,532.74C418.38,523.367 403.397,512.837 393.27,501.15C382.877,489.237 377.68,474.31 377.68,456.37C377.68,433.11 386.927,415.35 405.42,403.09C419.353,393.697 436.847,389 457.9,389Z" style="fill:white;fill-rule:nonzero;"/>
        </g>
        <g transform="matrix(1,0,0,1,-187.73,-246.35)">
            <path d="M642.24,464.12C668.56,464.12 689.413,473.377 704.8,491.89C719.24,509.363 726.46,532.68 726.46,561.84C726.46,585.213 722.073,604.88 713.3,620.84C698.72,647.34 674.897,660.59 641.83,660.59C613.077,660.59 591.143,650.233 576.03,629.52C563.477,612.4 557.2,589.953 557.2,562.18C557.2,531.053 565.23,506.753 581.29,489.28C596.683,472.507 617,464.12 642.24,464.12ZM641.63,500C630.697,500 621.857,504.977 615.11,514.93C607.703,525.95 604,541.47 604,561.49C604,579.777 606.903,594.357 612.71,605.23C619.323,617.497 629.11,623.63 642.07,623.63C653.943,623.63 663.19,618.297 669.81,607.63C676.697,596.757 680.14,581.31 680.14,561.29C680.14,540.463 676.09,524.61 667.99,513.73C661.083,504.577 652.297,500 641.63,500Z" style="fill:white;fill-rule:nonzero;"/>
        </g>
        <g transform="matrix(1,0,0,1,-187.73,-246.35)">
            <path d="M788.11,495C802.55,475.333 821.65,465.497 845.41,465.49C864.743,465.49 879.997,472.49 891.17,486.49C901.023,498.757 905.95,514.493 905.95,533.7L905.95,641.5C905.931,645.703 904.082,649.696 900.89,652.43C896.437,656.483 890.297,658.507 882.47,658.5C873.023,658.5 866.14,655.607 861.82,649.82C860.036,647.416 859.11,644.482 859.19,641.49L859.19,536.15C859.19,528.63 857.907,522.15 855.34,516.71C850.887,507.223 843.867,502.48 834.28,502.48C824.56,502.48 815.313,507.397 806.54,517.23C798.98,525.797 795.2,534.013 795.2,541.88L795.2,641.5C795.267,645.033 793.962,648.458 791.56,651.05C787.24,656.023 780.76,658.51 772.12,658.51C762.787,658.51 756.037,655.79 751.87,650.35C749.872,647.839 748.81,644.708 748.87,641.5L748.87,482.86C748.789,479.291 749.932,475.799 752.11,472.97C755.21,468.923 760.003,466.9 766.49,466.9C776.883,466.9 783.16,471.877 785.32,481.83L788.11,495Z" style="fill:white;fill-rule:nonzero;"/>
        </g>
        <g transform="matrix(1,0,0,1,-187.73,-246.35)">
            <path d="M1053,484.25L1056.85,477.48C1061.44,469.267 1067.44,465.16 1074.85,465.16C1081.33,465.16 1086.33,467.3 1089.85,471.58C1091.81,473.982 1092.87,476.992 1092.85,480.09L1092.85,620.5C1092.85,644.913 1087.11,663.773 1075.64,677.08C1061.33,693.627 1039.26,701.9 1009.43,701.9C985.43,701.9 965.047,696.287 948.28,685.06C939.773,679.387 935.52,673.543 935.52,667.53C935.588,663.086 937.407,658.843 940.58,655.73C944.307,651.755 949.553,649.547 955,649.66C959.72,649.66 965.12,651.683 971.2,655.73C982.287,663.243 995.053,667 1009.5,667C1035.28,667 1048.17,653 1048.17,625L1048.17,608C1039.5,621.08 1024.59,627.617 1003.42,627.61C981.013,627.61 962.79,620.277 948.75,605.61C934.577,590.943 927.49,571.503 927.49,547.29C927.49,527.957 932.213,511.237 941.66,497.13C956.373,475.13 977.563,464.13 1005.23,464.13C1027.78,464.123 1043.71,470.83 1053,484.25ZM1048.14,552.25L1048.14,541.53C1048.14,529.037 1044.36,518.853 1036.8,510.98C1030.22,503.806 1020.85,499.803 1011.12,500C999.513,500 990.063,504.627 982.77,513.88C976.017,522.327 972.643,533.26 972.65,546.68C972.65,559.293 975.213,569.65 980.34,577.75C987.087,588.417 997.347,593.75 1011.12,593.75C1025.7,593.75 1036.3,587.677 1042.91,575.53C1046.42,568.943 1048.17,561.197 1048.17,552.29L1048.14,552.25Z" style="fill:white;fill-rule:nonzero;"/>
        </g>
        <g transform="matrix(1,0,0,1,-187.73,-246.35)">
            <path d="M1198.29,464.12C1224.61,464.12 1245.46,473.377 1260.85,491.89C1275.29,509.363 1282.51,532.68 1282.51,561.84C1282.51,585.213 1278.12,604.88 1269.35,620.84C1254.77,647.34 1230.95,660.59 1197.88,660.59C1169.13,660.59 1147.19,650.233 1132.08,629.52C1119.53,612.4 1113.25,589.953 1113.25,562.18C1113.25,531.053 1121.28,506.753 1137.34,489.28C1152.73,472.507 1173.05,464.12 1198.29,464.12ZM1197.68,500.05C1186.75,500.05 1177.91,505.027 1171.16,514.98C1163.72,525.967 1160,541.47 1160,561.49C1160,579.777 1162.9,594.357 1168.71,605.23C1175.32,617.497 1185.11,623.63 1198.07,623.63C1209.95,623.63 1219.2,618.297 1225.81,607.63C1232.7,596.757 1236.14,581.31 1236.14,561.29C1236.14,540.463 1232.09,524.61 1223.99,513.73C1217.12,504.577 1208.35,500 1197.68,500L1197.68,500.05Z" style="fill:white;fill-rule:nonzero;"/>
        </g>
        <g transform="matrix(1,0,0,1,-187.73,-246.35)">
            <path d="M1414.41,488.24L1414.41,407.19C1414.29,402.675 1416.51,398.405 1420.28,395.91C1424.87,392.577 1430.74,390.91 1437.89,390.91C1447.34,390.91 1454.09,393.457 1458.14,398.55C1460.12,401.006 1461.18,404.077 1461.14,407.23L1461.14,642.23C1461.14,652.897 1455.07,658.23 1442.92,658.23C1432.53,658.23 1426.19,653.95 1423.92,645.39L1420.68,632.89C1410.29,650.483 1393.08,659.277 1369.05,659.27C1350.56,659.27 1334.76,651.807 1321.67,636.88C1305.47,618.6 1297.37,593.55 1297.37,561.73C1297.37,538.123 1302.04,518.107 1311.37,501.68C1325,477.613 1344.37,465.58 1369.48,465.58C1390.79,465.533 1405.77,473.087 1414.41,488.24ZM1416.84,567.24L1416.84,551.42C1416.84,534.087 1411.78,520.49 1401.65,510.63C1395.3,504.497 1388.35,501.43 1380.8,501.43C1372.03,501.43 1364.54,505.48 1358.33,513.58C1349.56,525.033 1345.17,541.117 1345.17,561.83C1345.17,578.837 1347.8,592.78 1353.07,603.66C1359.41,616.733 1368.39,623.27 1380,623.27C1391.33,623.27 1400.44,617.833 1407.33,606.96C1413.67,596.78 1416.84,583.53 1416.84,567.21L1416.84,567.24Z" style="fill:white;fill-rule:nonzero;"/>
        </g>
        <g transform="matrix(1,0,0,1,-187.73,-246.35)">
            <path d="M1605,486.85L1606.62,479.73C1608.78,470.477 1615.8,465.847 1627.68,465.84C1636.72,465.84 1643,468.79 1646.51,474.69C1647.87,477.067 1648.56,479.765 1648.51,482.5L1648.51,641.5C1648.51,646.707 1646.69,650.813 1643.04,653.82C1639.39,656.713 1634.8,658.16 1629.27,658.16C1618.6,658.16 1612.46,653.647 1610.85,644.62L1608.62,633.51C1598.62,650.637 1581.07,659.2 1555.98,659.2C1535.46,659.2 1518.46,650.81 1504.98,634.03C1490.4,615.863 1483.11,592.027 1483.11,562.52C1483.11,535.187 1490.13,512.45 1504.17,494.31C1519.02,475.103 1537.31,465.5 1559.04,465.5C1580.52,465.507 1595.84,472.623 1605,486.85ZM1603.79,567.9L1603.79,552.64C1603.79,535.627 1599.34,522.263 1590.43,512.55C1583.82,505.377 1576.12,501.79 1567.35,501.79C1558.68,501.79 1551.19,505.79 1544.88,513.79C1535.55,525.243 1530.88,541.617 1530.88,562.91C1530.88,581.19 1534.05,595.827 1540.4,606.82C1546.75,617.813 1555.52,623.31 1566.72,623.31C1579.54,623.31 1589.39,616.83 1596.28,603.87C1601.3,594.243 1603.81,582.257 1603.81,567.91L1603.79,567.9Z" style="fill:white;fill-rule:nonzero;"/>
        </g>
    </g>
</svg>
