<?xml version="1.0" encoding="UTF-8" standalone="no"?>
<!DOCTYPE svg PUBLIC "-//W3C//DTD SVG 1.1//EN" "http://www.w3.org/Graphics/SVG/1.1/DTD/svg11.dtd">
<svg width="100%" height="100%" viewBox="0 0 2935 675" version="1.1" xmlns="http://www.w3.org/2000/svg" xmlns:xlink="http://www.w3.org/1999/xlink" xml:space="preserve" xmlns:serif="http://www.serif.com/" style="fill-rule:evenodd;clip-rule:evenodd;stroke-linejoin:round;stroke-miterlimit:2;">
    <g transform="matrix(1,0,0,1,-1381.55,-746.123)">
        <g id="Artboard1" transform="matrix(1.28185,0,0,0.529972,1598.74,871.869)">
            <rect x="-169.435" y="-237.269" width="2288.91" height="1272.99" style="fill:none;"/>
            <g transform="matrix(1.20722,0,0,1.19042,-223.956,-91.9918)">
                <g transform="matrix(0.440781,0,0,0.821285,-406.272,81.4813)">
                    <g transform="matrix(6.10703,0,0,8.03637,-333.196,-432.639)">
                        <g transform="matrix(1,0,0,1,389.38,24.3107)">
                            <path d="M0,23.654L-152.153,23.654C-154.353,23.654 -156.153,21.854 -156.153,19.654L-156.153,4C-156.153,1.8 -154.353,0 -152.153,0L0,0C2.2,0 4,1.8 4,4L4,19.654C4,21.854 2.2,23.654 0,23.654" style="fill:white;fill-rule:nonzero;"/>
                        </g>
                        <g transform="matrix(1,0,0,1,254.411,168.773)">
                            <path d="M0,-99.231C-4.121,-99.231 -7.979,-97.338 -10.862,-93.902C-14.378,-89.71 -15.876,-83.807 -14.868,-78.11L-3.558,-14.09C-2.115,-5.925 4.139,0 11.312,0L106.474,0C113.646,0 119.901,-5.925 121.343,-14.09L132.655,-78.11C133.661,-83.807 132.163,-89.709 128.647,-93.901C125.764,-97.338 121.905,-99.231 117.784,-99.231L0,-99.231ZM106.474,13.846L11.312,13.846C-2.591,13.846 -14.579,3.111 -17.193,-11.68L-28.503,-75.701C-30.24,-85.524 -27.676,-95.402 -21.47,-102.799C-15.992,-109.332 -8.166,-113.077 0,-113.077L117.784,-113.077C125.951,-113.077 133.777,-109.33 139.256,-102.799C145.462,-95.4 148.026,-85.524 146.29,-75.701L134.978,-11.68C132.363,3.111 120.377,13.846 106.474,13.846" style="fill:white;fill-rule:nonzero;"/>
                        </g>
                        <g transform="matrix(1,0,0,1,374.226,39.3116)">
                            <path d="M0,14.307L0,11.538C2.418,11.538 4.386,9.57 4.386,7.153C4.386,4.735 2.418,2.769 0,2.769L-122.307,2.769C-124.724,2.769 -126.69,4.735 -126.69,7.153C-126.69,9.57 -124.724,11.538 -122.307,11.538L-122.307,14.307C-126.251,14.307 -129.46,11.097 -129.46,7.153C-129.46,3.208 -126.251,0 -122.307,0L0,0C3.946,0 7.156,3.208 7.156,7.153C7.156,11.097 3.946,14.307 0,14.307" style="fill:white;fill-rule:nonzero;"/>
                        </g>
                        <g transform="matrix(1,0,0,1,374.226,50.8495)">
                            <path d="M0,14.307L-122.307,14.307C-126.251,14.307 -129.46,11.098 -129.46,7.154C-129.46,3.21 -126.251,0 -122.307,0L-122.307,2.769C-124.724,2.769 -126.69,4.736 -126.69,7.154C-126.69,9.572 -124.724,11.538 -122.307,11.538L0,11.538C2.418,11.538 4.386,9.572 4.386,7.154C4.386,4.736 2.418,2.769 0,2.769L0,0C3.946,0 7.156,3.21 7.156,7.154C7.156,11.098 3.946,14.307 0,14.307" style="fill:white;fill-rule:nonzero;"/>
                        </g>
                        <g transform="matrix(1,0,0,1,251.919,53.6183)">
                            <path d="M0,-2.769L44.538,-1.384L0,0L0,-2.769Z" style="fill:white;fill-rule:nonzero;"/>
                        </g>
                        <g transform="matrix(1,0,0,1,379.996,50.8496)">
                            <path d="M0,2.769L-55.615,1.384L0,0L0,2.769Z" style="fill:white;fill-rule:nonzero;"/>
                        </g>
                    </g>
                    <g transform="matrix(5.63941,0,0,7.4239,844.173,-546.899)">
                        <path d="M201.361,124.483C184.386,125.722 165.265,131.889 153.705,140.956C102.061,181.462 61.26,132.144 61.208,132.177C61.208,132.177 67.129,164.469 70.224,181.347C71.288,187.151 76.34,191.37 82.241,191.383C104.483,191.431 157.213,191.544 179.625,191.592C185.608,191.605 190.724,187.292 191.723,181.393C194.905,162.604 201.361,124.483 201.361,124.483Z" style="fill:url(#_Linear1);"/>
                    </g>
                </g>
                <g transform="matrix(0.717946,0,0,1.76101,-1074.27,184.249)">
                    <g transform="matrix(412.5,0,0,412.5,2284.54,322.066)">
                        <path d="M0.42,-0.189C0.42,-0.214 0.412,-0.234 0.394,-0.248C0.376,-0.262 0.345,-0.276 0.3,-0.291C0.256,-0.306 0.219,-0.32 0.191,-0.334C0.099,-0.38 0.053,-0.442 0.053,-0.521C0.053,-0.56 0.064,-0.595 0.087,-0.625C0.11,-0.655 0.143,-0.679 0.185,-0.696C0.227,-0.712 0.274,-0.721 0.326,-0.721C0.377,-0.721 0.423,-0.712 0.464,-0.693C0.504,-0.675 0.536,-0.649 0.558,-0.615C0.581,-0.582 0.592,-0.543 0.592,-0.5L0.421,-0.5C0.421,-0.529 0.412,-0.551 0.394,-0.567C0.377,-0.583 0.353,-0.591 0.322,-0.591C0.292,-0.591 0.267,-0.585 0.25,-0.571C0.232,-0.558 0.223,-0.54 0.223,-0.52C0.223,-0.501 0.233,-0.485 0.252,-0.47C0.272,-0.455 0.306,-0.44 0.355,-0.424C0.405,-0.408 0.445,-0.391 0.477,-0.373C0.553,-0.329 0.592,-0.268 0.592,-0.19C0.592,-0.128 0.568,-0.079 0.521,-0.043C0.475,-0.008 0.41,0.01 0.329,0.01C0.271,0.01 0.219,-0.001 0.172,-0.021C0.125,-0.042 0.09,-0.07 0.067,-0.106C0.043,-0.142 0.031,-0.184 0.031,-0.23L0.203,-0.23C0.203,-0.192 0.213,-0.164 0.233,-0.146C0.252,-0.128 0.284,-0.119 0.329,-0.119C0.357,-0.119 0.379,-0.125 0.396,-0.137C0.412,-0.15 0.42,-0.167 0.42,-0.189Z" style="fill:white;fill-rule:nonzero;"/>
                    </g>
                    <g transform="matrix(412.5,0,0,412.5,2527.49,322.066)">
                        <path d="M0.302,0.01C0.221,0.01 0.155,-0.014 0.105,-0.063C0.055,-0.111 0.03,-0.174 0.03,-0.251L0.03,-0.265C0.03,-0.319 0.04,-0.367 0.06,-0.408C0.08,-0.45 0.109,-0.482 0.147,-0.504C0.186,-0.527 0.231,-0.538 0.284,-0.538C0.358,-0.538 0.417,-0.515 0.46,-0.469C0.503,-0.423 0.524,-0.359 0.524,-0.276L0.524,-0.212L0.197,-0.212C0.203,-0.183 0.216,-0.16 0.236,-0.143C0.256,-0.126 0.281,-0.117 0.313,-0.117C0.365,-0.117 0.406,-0.135 0.435,-0.172L0.51,-0.083C0.49,-0.055 0.461,-0.032 0.423,-0.015C0.385,0.001 0.345,0.01 0.302,0.01ZM0.283,-0.411C0.235,-0.411 0.206,-0.379 0.197,-0.315L0.363,-0.315L0.363,-0.328C0.364,-0.354 0.357,-0.375 0.343,-0.389C0.329,-0.404 0.309,-0.411 0.283,-0.411Z" style="fill:white;fill-rule:nonzero;"/>
                    </g>
                    <g transform="matrix(412.5,0,0,412.5,2736.81,322.066)">
                        <path d="M0.366,-0.379L0.312,-0.383C0.26,-0.383 0.227,-0.367 0.212,-0.334L0.212,0L0.047,0L0.047,-0.528L0.202,-0.528L0.207,-0.46C0.235,-0.512 0.273,-0.538 0.323,-0.538C0.34,-0.538 0.356,-0.536 0.369,-0.532L0.366,-0.379Z" style="fill:white;fill-rule:nonzero;"/>
                    </g>
                    <g transform="matrix(412.5,0,0,412.5,2881.47,322.066)">
                        <path d="M0.257,-0.196L0.34,-0.528L0.514,-0.528L0.341,0L0.173,0L0.001,-0.528L0.175,-0.528L0.257,-0.196Z" style="fill:white;fill-rule:nonzero;"/>
                    </g>
                    <g transform="matrix(412.5,0,0,412.5,3076.69,322.066)">
                        <path d="M0.302,0.01C0.221,0.01 0.155,-0.014 0.105,-0.063C0.055,-0.111 0.03,-0.174 0.03,-0.251L0.03,-0.265C0.03,-0.319 0.04,-0.367 0.06,-0.408C0.08,-0.45 0.109,-0.482 0.147,-0.504C0.186,-0.527 0.231,-0.538 0.284,-0.538C0.358,-0.538 0.417,-0.515 0.46,-0.469C0.503,-0.423 0.524,-0.359 0.524,-0.276L0.524,-0.212L0.197,-0.212C0.203,-0.183 0.216,-0.16 0.236,-0.143C0.256,-0.126 0.281,-0.117 0.313,-0.117C0.365,-0.117 0.406,-0.135 0.435,-0.172L0.51,-0.083C0.49,-0.055 0.461,-0.032 0.423,-0.015C0.385,0.001 0.345,0.01 0.302,0.01ZM0.283,-0.411C0.235,-0.411 0.206,-0.379 0.197,-0.315L0.363,-0.315L0.363,-0.328C0.364,-0.354 0.357,-0.375 0.343,-0.389C0.329,-0.404 0.309,-0.411 0.283,-0.411Z" style="fill:white;fill-rule:nonzero;"/>
                    </g>
                    <g transform="matrix(412.5,0,0,412.5,3286,322.066)">
                        <path d="M0.366,-0.379L0.312,-0.383C0.26,-0.383 0.227,-0.367 0.212,-0.334L0.212,0L0.047,0L0.047,-0.528L0.202,-0.528L0.207,-0.46C0.235,-0.512 0.273,-0.538 0.323,-0.538C0.34,-0.538 0.356,-0.536 0.369,-0.532L0.366,-0.379Z" style="fill:white;fill-rule:nonzero;"/>
                    </g>
                    <g transform="matrix(412.5,0,0,412.5,3427.04,322.066)">
                        <path d="M0.337,-0.711L0.508,-0.711L0.508,-0.223C0.508,-0.178 0.497,-0.138 0.476,-0.102C0.455,-0.067 0.426,-0.039 0.388,-0.02C0.351,0 0.309,0.01 0.263,0.01C0.185,0.01 0.125,-0.01 0.082,-0.049C0.039,-0.088 0.018,-0.143 0.018,-0.215L0.189,-0.215C0.189,-0.182 0.195,-0.159 0.206,-0.144C0.218,-0.129 0.236,-0.122 0.263,-0.122C0.286,-0.122 0.305,-0.131 0.318,-0.149C0.33,-0.166 0.337,-0.191 0.337,-0.223L0.337,-0.711Z" style="fill:rgb(104,62,178);fill-rule:nonzero;"/>
                    </g>
                    <g transform="matrix(412.5,0,0,412.5,3643.61,322.066)">
                        <path d="M0.344,0C0.338,-0.011 0.333,-0.027 0.328,-0.047C0.298,-0.009 0.256,0.01 0.201,0.01C0.151,0.01 0.109,-0.005 0.074,-0.035C0.039,-0.066 0.022,-0.103 0.022,-0.149C0.022,-0.206 0.043,-0.25 0.085,-0.279C0.128,-0.308 0.189,-0.323 0.27,-0.323L0.321,-0.323L0.321,-0.351C0.321,-0.399 0.3,-0.424 0.258,-0.424C0.219,-0.424 0.199,-0.405 0.199,-0.366L0.035,-0.366C0.035,-0.417 0.056,-0.458 0.1,-0.49C0.143,-0.522 0.199,-0.538 0.266,-0.538C0.333,-0.538 0.387,-0.522 0.426,-0.489C0.465,-0.456 0.485,-0.411 0.486,-0.354L0.486,-0.12C0.486,-0.071 0.494,-0.034 0.508,-0.008L0.508,0L0.344,0ZM0.241,-0.107C0.261,-0.107 0.278,-0.112 0.292,-0.121C0.305,-0.129 0.315,-0.139 0.321,-0.15L0.321,-0.235L0.273,-0.235C0.216,-0.235 0.187,-0.209 0.187,-0.158C0.187,-0.143 0.192,-0.131 0.202,-0.121C0.212,-0.112 0.225,-0.107 0.241,-0.107Z" style="fill:rgb(104,62,178);fill-rule:nonzero;"/>
                    </g>
                    <g transform="matrix(412.5,0,0,412.5,3847.28,322.066)">
                        <path d="M0.366,-0.379L0.312,-0.383C0.26,-0.383 0.227,-0.367 0.212,-0.334L0.212,0L0.047,0L0.047,-0.528L0.202,-0.528L0.207,-0.46C0.235,-0.512 0.273,-0.538 0.323,-0.538C0.34,-0.538 0.356,-0.536 0.369,-0.532L0.366,-0.379Z" style="fill:rgb(104,62,178);fill-rule:nonzero;"/>
                    </g>
                    <g transform="matrix(412.5,0,0,412.5,3988.32,322.066)">
                        <path d="M0.323,-0.148C0.323,-0.162 0.315,-0.174 0.301,-0.182C0.286,-0.191 0.258,-0.199 0.217,-0.208C0.176,-0.218 0.142,-0.23 0.116,-0.244C0.089,-0.259 0.069,-0.277 0.055,-0.298C0.041,-0.319 0.034,-0.344 0.034,-0.371C0.034,-0.42 0.054,-0.46 0.094,-0.491C0.134,-0.522 0.186,-0.538 0.251,-0.538C0.321,-0.538 0.377,-0.522 0.419,-0.491C0.461,-0.459 0.482,-0.418 0.482,-0.366L0.317,-0.366C0.317,-0.409 0.295,-0.43 0.25,-0.43C0.233,-0.43 0.219,-0.425 0.207,-0.415C0.195,-0.406 0.189,-0.394 0.189,-0.379C0.189,-0.365 0.197,-0.353 0.211,-0.344C0.225,-0.335 0.248,-0.327 0.28,-0.321C0.311,-0.315 0.339,-0.308 0.362,-0.3C0.442,-0.273 0.481,-0.224 0.481,-0.153C0.481,-0.105 0.46,-0.066 0.417,-0.036C0.374,-0.005 0.319,0.01 0.251,0.01C0.206,0.01 0.165,0.002 0.13,-0.015C0.094,-0.031 0.067,-0.053 0.047,-0.081C0.027,-0.109 0.017,-0.139 0.017,-0.169L0.171,-0.169C0.172,-0.145 0.18,-0.127 0.195,-0.116C0.211,-0.105 0.231,-0.099 0.255,-0.099C0.278,-0.099 0.295,-0.104 0.306,-0.113C0.317,-0.122 0.323,-0.134 0.323,-0.148Z" style="fill:rgb(104,62,178);fill-rule:nonzero;"/>
                    </g>
                </g>
                <g transform="matrix(0.717946,0,0,1.76101,-1074.27,184.249)">
                    <clipPath id="_clip2">
                        <path d="M4626.16,452.111L2413.04,-342.873L2264.59,100.106L4206.03,524.496L4626.16,452.111Z"/>
                    </clipPath>
                    <g clip-path="url(#_clip2)">
                        <g transform="matrix(412.5,0,0,412.5,2284.54,322.066)">
                            <path d="M0.42,-0.189C0.42,-0.214 0.412,-0.234 0.394,-0.248C0.376,-0.262 0.345,-0.276 0.3,-0.291C0.256,-0.306 0.219,-0.32 0.191,-0.334C0.099,-0.38 0.053,-0.442 0.053,-0.521C0.053,-0.56 0.064,-0.595 0.087,-0.625C0.11,-0.655 0.143,-0.679 0.185,-0.696C0.227,-0.712 0.274,-0.721 0.326,-0.721C0.377,-0.721 0.423,-0.712 0.464,-0.693C0.504,-0.675 0.536,-0.649 0.558,-0.615C0.581,-0.582 0.592,-0.543 0.592,-0.5L0.421,-0.5C0.421,-0.529 0.412,-0.551 0.394,-0.567C0.377,-0.583 0.353,-0.591 0.322,-0.591C0.292,-0.591 0.267,-0.585 0.25,-0.571C0.232,-0.558 0.223,-0.54 0.223,-0.52C0.223,-0.501 0.233,-0.485 0.252,-0.47C0.272,-0.455 0.306,-0.44 0.355,-0.424C0.405,-0.408 0.445,-0.391 0.477,-0.373C0.553,-0.329 0.592,-0.268 0.592,-0.19C0.592,-0.128 0.568,-0.079 0.521,-0.043C0.475,-0.008 0.41,0.01 0.329,0.01C0.271,0.01 0.219,-0.001 0.172,-0.021C0.125,-0.042 0.09,-0.07 0.067,-0.106C0.043,-0.142 0.031,-0.184 0.031,-0.23L0.203,-0.23C0.203,-0.192 0.213,-0.164 0.233,-0.146C0.252,-0.128 0.284,-0.119 0.329,-0.119C0.357,-0.119 0.379,-0.125 0.396,-0.137C0.412,-0.15 0.42,-0.167 0.42,-0.189Z" style="fill-opacity:0.16;fill-rule:nonzero;"/>
                        </g>
                        <g transform="matrix(412.5,0,0,412.5,2527.49,322.066)">
                            <path d="M0.302,0.01C0.221,0.01 0.155,-0.014 0.105,-0.063C0.055,-0.111 0.03,-0.174 0.03,-0.251L0.03,-0.265C0.03,-0.319 0.04,-0.367 0.06,-0.408C0.08,-0.45 0.109,-0.482 0.147,-0.504C0.186,-0.527 0.231,-0.538 0.284,-0.538C0.358,-0.538 0.417,-0.515 0.46,-0.469C0.503,-0.423 0.524,-0.359 0.524,-0.276L0.524,-0.212L0.197,-0.212C0.203,-0.183 0.216,-0.16 0.236,-0.143C0.256,-0.126 0.281,-0.117 0.313,-0.117C0.365,-0.117 0.406,-0.135 0.435,-0.172L0.51,-0.083C0.49,-0.055 0.461,-0.032 0.423,-0.015C0.385,0.001 0.345,0.01 0.302,0.01ZM0.283,-0.411C0.235,-0.411 0.206,-0.379 0.197,-0.315L0.363,-0.315L0.363,-0.328C0.364,-0.354 0.357,-0.375 0.343,-0.389C0.329,-0.404 0.309,-0.411 0.283,-0.411Z" style="fill-opacity:0.16;fill-rule:nonzero;"/>
                        </g>
                        <g transform="matrix(412.5,0,0,412.5,2736.81,322.066)">
                            <path d="M0.366,-0.379L0.312,-0.383C0.26,-0.383 0.227,-0.367 0.212,-0.334L0.212,0L0.047,0L0.047,-0.528L0.202,-0.528L0.207,-0.46C0.235,-0.512 0.273,-0.538 0.323,-0.538C0.34,-0.538 0.356,-0.536 0.369,-0.532L0.366,-0.379Z" style="fill-opacity:0.16;fill-rule:nonzero;"/>
                        </g>
                        <g transform="matrix(412.5,0,0,412.5,2881.47,322.066)">
                            <path d="M0.257,-0.196L0.34,-0.528L0.514,-0.528L0.341,0L0.173,0L0.001,-0.528L0.175,-0.528L0.257,-0.196Z" style="fill-opacity:0.16;fill-rule:nonzero;"/>
                        </g>
                        <g transform="matrix(412.5,0,0,412.5,3076.69,322.066)">
                            <path d="M0.302,0.01C0.221,0.01 0.155,-0.014 0.105,-0.063C0.055,-0.111 0.03,-0.174 0.03,-0.251L0.03,-0.265C0.03,-0.319 0.04,-0.367 0.06,-0.408C0.08,-0.45 0.109,-0.482 0.147,-0.504C0.186,-0.527 0.231,-0.538 0.284,-0.538C0.358,-0.538 0.417,-0.515 0.46,-0.469C0.503,-0.423 0.524,-0.359 0.524,-0.276L0.524,-0.212L0.197,-0.212C0.203,-0.183 0.216,-0.16 0.236,-0.143C0.256,-0.126 0.281,-0.117 0.313,-0.117C0.365,-0.117 0.406,-0.135 0.435,-0.172L0.51,-0.083C0.49,-0.055 0.461,-0.032 0.423,-0.015C0.385,0.001 0.345,0.01 0.302,0.01ZM0.283,-0.411C0.235,-0.411 0.206,-0.379 0.197,-0.315L0.363,-0.315L0.363,-0.328C0.364,-0.354 0.357,-0.375 0.343,-0.389C0.329,-0.404 0.309,-0.411 0.283,-0.411Z" style="fill-opacity:0.16;fill-rule:nonzero;"/>
                        </g>
                        <g transform="matrix(412.5,0,0,412.5,3286,322.066)">
                            <path d="M0.366,-0.379L0.312,-0.383C0.26,-0.383 0.227,-0.367 0.212,-0.334L0.212,0L0.047,0L0.047,-0.528L0.202,-0.528L0.207,-0.46C0.235,-0.512 0.273,-0.538 0.323,-0.538C0.34,-0.538 0.356,-0.536 0.369,-0.532L0.366,-0.379Z" style="fill-opacity:0.16;fill-rule:nonzero;"/>
                        </g>
                        <g transform="matrix(412.5,0,0,412.5,3427.04,322.066)">
                            <path d="M0.337,-0.711L0.508,-0.711L0.508,-0.223C0.508,-0.178 0.497,-0.138 0.476,-0.102C0.455,-0.067 0.426,-0.039 0.388,-0.02C0.351,0 0.309,0.01 0.263,0.01C0.185,0.01 0.125,-0.01 0.082,-0.049C0.039,-0.088 0.018,-0.143 0.018,-0.215L0.189,-0.215C0.189,-0.182 0.195,-0.159 0.206,-0.144C0.218,-0.129 0.236,-0.122 0.263,-0.122C0.286,-0.122 0.305,-0.131 0.318,-0.149C0.33,-0.166 0.337,-0.191 0.337,-0.223L0.337,-0.711Z" style="fill-opacity:0.16;fill-rule:nonzero;"/>
                        </g>
                        <g transform="matrix(412.5,0,0,412.5,3643.61,322.066)">
                            <path d="M0.344,0C0.338,-0.011 0.333,-0.027 0.328,-0.047C0.298,-0.009 0.256,0.01 0.201,0.01C0.151,0.01 0.109,-0.005 0.074,-0.035C0.039,-0.066 0.022,-0.103 0.022,-0.149C0.022,-0.206 0.043,-0.25 0.085,-0.279C0.128,-0.308 0.189,-0.323 0.27,-0.323L0.321,-0.323L0.321,-0.351C0.321,-0.399 0.3,-0.424 0.258,-0.424C0.219,-0.424 0.199,-0.405 0.199,-0.366L0.035,-0.366C0.035,-0.417 0.056,-0.458 0.1,-0.49C0.143,-0.522 0.199,-0.538 0.266,-0.538C0.333,-0.538 0.387,-0.522 0.426,-0.489C0.465,-0.456 0.485,-0.411 0.486,-0.354L0.486,-0.12C0.486,-0.071 0.494,-0.034 0.508,-0.008L0.508,0L0.344,0ZM0.241,-0.107C0.261,-0.107 0.278,-0.112 0.292,-0.121C0.305,-0.129 0.315,-0.139 0.321,-0.15L0.321,-0.235L0.273,-0.235C0.216,-0.235 0.187,-0.209 0.187,-0.158C0.187,-0.143 0.192,-0.131 0.202,-0.121C0.212,-0.112 0.225,-0.107 0.241,-0.107Z" style="fill-opacity:0.16;fill-rule:nonzero;"/>
                        </g>
                        <g transform="matrix(412.5,0,0,412.5,3847.28,322.066)">
                            <path d="M0.366,-0.379L0.312,-0.383C0.26,-0.383 0.227,-0.367 0.212,-0.334L0.212,0L0.047,0L0.047,-0.528L0.202,-0.528L0.207,-0.46C0.235,-0.512 0.273,-0.538 0.323,-0.538C0.34,-0.538 0.356,-0.536 0.369,-0.532L0.366,-0.379Z" style="fill-opacity:0.16;fill-rule:nonzero;"/>
                        </g>
                        <g transform="matrix(412.5,0,0,412.5,3988.32,322.066)">
                            <path d="M0.323,-0.148C0.323,-0.162 0.315,-0.174 0.301,-0.182C0.286,-0.191 0.258,-0.199 0.217,-0.208C0.176,-0.218 0.142,-0.23 0.116,-0.244C0.089,-0.259 0.069,-0.277 0.055,-0.298C0.041,-0.319 0.034,-0.344 0.034,-0.371C0.034,-0.42 0.054,-0.46 0.094,-0.491C0.134,-0.522 0.186,-0.538 0.251,-0.538C0.321,-0.538 0.377,-0.522 0.419,-0.491C0.461,-0.459 0.482,-0.418 0.482,-0.366L0.317,-0.366C0.317,-0.409 0.295,-0.43 0.25,-0.43C0.233,-0.43 0.219,-0.425 0.207,-0.415C0.195,-0.406 0.189,-0.394 0.189,-0.379C0.189,-0.365 0.197,-0.353 0.211,-0.344C0.225,-0.335 0.248,-0.327 0.28,-0.321C0.311,-0.315 0.339,-0.308 0.362,-0.3C0.442,-0.273 0.481,-0.224 0.481,-0.153C0.481,-0.105 0.46,-0.066 0.417,-0.036C0.374,-0.005 0.319,0.01 0.251,0.01C0.206,0.01 0.165,0.002 0.13,-0.015C0.094,-0.031 0.067,-0.053 0.047,-0.081C0.027,-0.109 0.017,-0.139 0.017,-0.169L0.171,-0.169C0.172,-0.145 0.18,-0.127 0.195,-0.116C0.211,-0.105 0.231,-0.099 0.255,-0.099C0.278,-0.099 0.295,-0.104 0.306,-0.113C0.317,-0.122 0.323,-0.134 0.323,-0.148Z" style="fill-opacity:0.16;fill-rule:nonzero;"/>
                        </g>
                    </g>
                </g>
            </g>
        </g>
    </g>
    <defs>
        <linearGradient id="_Linear1" x1="0" y1="0" x2="1" y2="0" gradientUnits="userSpaceOnUse" gradientTransform="matrix(140.276,0,0,67.1313,61.085,158.048)"><stop offset="0" style="stop-color:rgb(183,0,165);stop-opacity:1"/><stop offset="1" style="stop-color:rgb(99,66,179);stop-opacity:1"/></linearGradient>
    </defs>
</svg>
