<?xml version="1.0" encoding="UTF-8" standalone="no"?>
<!DOCTYPE svg PUBLIC "-//W3C//DTD SVG 1.1//EN" "http://www.w3.org/Graphics/SVG/1.1/DTD/svg11.dtd">
<svg width="100%" height="100%" viewBox="0 0 856 856" version="1.1" xmlns="http://www.w3.org/2000/svg" xmlns:xlink="http://www.w3.org/1999/xlink" xml:space="preserve" xmlns:serif="http://www.serif.com/" style="fill-rule:evenodd;clip-rule:evenodd;stroke-linejoin:round;stroke-miterlimit:2;">
    <g id="Artboard2" transform="matrix(1,0,0,1,1062.34,-143.362)">
        <rect x="-1062.34" y="143.362" width="855.548" height="855.548" style="fill:none;"/>
        <g transform="matrix(0.749856,0,0,0.569612,-1819.46,343.952)">
            <g transform="matrix(6.10703,0,0,8.03637,-333.196,-432.639)">
                <g transform="matrix(1,0,0,1,389.38,24.3107)">
                    <path d="M0,23.654L-152.153,23.654C-154.353,23.654 -156.153,21.854 -156.153,19.654L-156.153,4C-156.153,1.8 -154.353,0 -152.153,0L0,0C2.2,0 4,1.8 4,4L4,19.654C4,21.854 2.2,23.654 0,23.654" style="fill:white;fill-rule:nonzero;"/>
                </g>
                <g transform="matrix(1,0,0,1,254.411,168.773)">
                    <path d="M0,-99.231C-4.121,-99.231 -7.979,-97.338 -10.862,-93.902C-14.378,-89.71 -15.876,-83.807 -14.868,-78.11L-3.558,-14.09C-2.115,-5.925 4.139,0 11.312,0L106.474,0C113.646,0 119.901,-5.925 121.343,-14.09L132.655,-78.11C133.661,-83.807 132.163,-89.709 128.647,-93.901C125.764,-97.338 121.905,-99.231 117.784,-99.231L0,-99.231ZM106.474,13.846L11.312,13.846C-2.591,13.846 -14.579,3.111 -17.193,-11.68L-28.503,-75.701C-30.24,-85.524 -27.676,-95.402 -21.47,-102.799C-15.992,-109.332 -8.166,-113.077 0,-113.077L117.784,-113.077C125.951,-113.077 133.777,-109.33 139.256,-102.799C145.462,-95.4 148.026,-85.524 146.29,-75.701L134.978,-11.68C132.363,3.111 120.377,13.846 106.474,13.846" style="fill:white;fill-rule:nonzero;"/>
                </g>
                <g transform="matrix(1,0,0,1,374.226,39.3116)">
                    <path d="M0,14.307L0,11.538C2.418,11.538 4.386,9.57 4.386,7.153C4.386,4.735 2.418,2.769 0,2.769L-122.307,2.769C-124.724,2.769 -126.69,4.735 -126.69,7.153C-126.69,9.57 -124.724,11.538 -122.307,11.538L-122.307,14.307C-126.251,14.307 -129.46,11.097 -129.46,7.153C-129.46,3.208 -126.251,0 -122.307,0L0,0C3.946,0 7.156,3.208 7.156,7.153C7.156,11.097 3.946,14.307 0,14.307" style="fill:white;fill-rule:nonzero;"/>
                </g>
                <g transform="matrix(1,0,0,1,374.226,50.8495)">
                    <path d="M0,14.307L-122.307,14.307C-126.251,14.307 -129.46,11.098 -129.46,7.154C-129.46,3.21 -126.251,0 -122.307,0L-122.307,2.769C-124.724,2.769 -126.69,4.736 -126.69,7.154C-126.69,9.572 -124.724,11.538 -122.307,11.538L0,11.538C2.418,11.538 4.386,9.572 4.386,7.154C4.386,4.736 2.418,2.769 0,2.769L0,0C3.946,0 7.156,3.21 7.156,7.154C7.156,11.098 3.946,14.307 0,14.307" style="fill:white;fill-rule:nonzero;"/>
                </g>
                <g transform="matrix(1,0,0,1,251.919,53.6183)">
                    <path d="M0,-2.769L44.538,-1.384L0,0L0,-2.769Z" style="fill:white;fill-rule:nonzero;"/>
                </g>
                <g transform="matrix(1,0,0,1,379.996,50.8496)">
                    <path d="M0,2.769L-55.615,1.384L0,0L0,2.769Z" style="fill:white;fill-rule:nonzero;"/>
                </g>
            </g>
            <g transform="matrix(5.63941,0,0,7.4239,844.173,-546.899)">
                <path d="M201.361,124.483C184.386,125.722 165.265,131.889 153.705,140.956C102.061,181.462 61.26,132.144 61.208,132.177C61.208,132.177 67.346,165.654 70.39,182.252C71.358,187.532 75.953,191.369 81.321,191.381C103.298,191.428 158.415,191.546 180.561,191.594C186.004,191.605 190.658,187.682 191.566,182.316C194.688,163.886 201.361,124.483 201.361,124.483Z" style="fill:white;"/>
            </g>
        </g>
    </g>
</svg>
